<svg xmlns="http://www.w3.org/2000/svg" width="11.438" height="17.734" viewBox="0 0 11.438 17.734">
  <g id="Trazado_930" data-name="Trazado 930" transform="translate(-0.562 18.867) rotate(-90)" fill="none">
    <path d="M9.232.922a1,1,0,0,1,1.536,0l7.865,9.438A1,1,0,0,1,17.865,12H2.135a1,1,0,0,1-.768-1.64Z" stroke="none"/>
    <path d="M 9.999999046325684 1.562045097351074 L 2.135042190551758 10.99999141693115 C 2.135044097900391 10.99999237060547 2.135044097900391 10.9999942779541 2.135038375854492 10.99999523162842 L 17.86495399475098 10.99999523162842 C 17.86495399475098 10.9999942779541 17.86495399475098 10.99999237060547 17.86495971679688 10.99999523162842 L 10.00166893005371 1.562215805053711 C 10.00150871276855 1.562175750732422 10.00087928771973 1.562055587768555 9.999999046325684 1.562055587768555 L 9.999999046325684 1.562045097351074 M 9.999999046325684 0.5620527267456055 C 10.28416156768799 0.5620527267456055 10.56832408905029 0.6819906234741211 10.76821899414062 0.9218654632568359 L 18.6331787109375 10.35981559753418 C 19.17594909667969 11.01114559173584 18.71279907226562 11.99999523162842 17.86495971679688 11.99999523162842 L 2.135038375854492 11.99999523162842 C 1.287199020385742 11.99999523162842 0.8240489959716797 11.01114559173584 1.366819381713867 10.35981559753418 L 9.231779098510742 0.9218654632568359 C 9.431674003601074 0.6819906234741211 9.715836524963379 0.5620527267456055 9.999999046325684 0.5620527267456055 Z" stroke="none" fill="#656b72"/>
  </g>
</svg>
