<svg id="svgexport-6" xmlns="http://www.w3.org/2000/svg" width="30.945" height="41.261" viewBox="0 0 30.945 41.261">
  <path id="Trazado_903" data-name="Trazado 903" d="M12.249,5.158H8.381a.647.647,0,0,0-.645.645V7.092a.647.647,0,0,0,.645.645h3.868a.647.647,0,0,0,.645-.645V5.8A.647.647,0,0,0,12.249,5.158ZM29.656,3.868a1.293,1.293,0,0,0,1.289-1.289V1.289A1.293,1.293,0,0,0,29.656,0H1.289A1.293,1.293,0,0,0,0,1.289V2.579A1.293,1.293,0,0,0,1.289,3.868H2.579V16.5C.951,17.31,0,18.285,0,19.341A15.42,15.42,0,0,0,5.939,31.51L3.981,37.932a2.577,2.577,0,0,0,2.466,3.328H24.5a2.577,2.577,0,0,0,2.466-3.328L25.006,31.51a15.432,15.432,0,0,0,5.939-12.169c0-1.056-.951-2.031-2.579-2.845V3.868Zm-23.209,0H24.5v11.29a39.33,39.33,0,0,0-9.026-.975,39.33,39.33,0,0,0-9.026.975ZM8.188,37.392l1.169-3.836a15.508,15.508,0,0,0,12.233,0l1.169,3.836Zm7.285-6.447a11.593,11.593,0,0,1-10.984-7.97A35.915,35.915,0,0,0,15.473,24.5a35.915,35.915,0,0,0,10.984-1.523,11.593,11.593,0,0,1-10.984,7.97Zm0-9.348c-6.213,0-11.25-1.007-11.25-2.256s5.037-2.256,11.25-2.256,11.25,1.007,11.25,2.256S21.686,21.6,15.473,21.6Z" transform="translate(0)" fill="#585858"/>
</svg>
