<svg xmlns="http://www.w3.org/2000/svg" width="41.76" height="36.54" viewBox="0 0 41.76 36.54">
  <path id="Bed" d="M6.525,42.44a2.61,2.61,0,0,1,2.61-2.61h7.83a2.61,2.61,0,0,1,2.61,2.61v2.61h2.61V42.44a2.61,2.61,0,0,1,2.61-2.61h7.83a2.61,2.61,0,0,1,2.61,2.61v2.61H39.15V34.61A2.61,2.61,0,0,0,36.54,32H5.22a2.61,2.61,0,0,0-2.61,2.61V45.05H6.525ZM36.54,47.66H5.22A5.22,5.22,0,0,0,0,52.88V67.235a1.3,1.3,0,0,0,1.3,1.3h1.3a1.3,1.3,0,0,0,1.3-1.3V63.32h33.93v3.915a1.3,1.3,0,0,0,1.3,1.3h1.3a1.3,1.3,0,0,0,1.3-1.3V52.88A5.22,5.22,0,0,0,36.54,47.66Zm1.3,11.745H3.915V52.88a1.3,1.3,0,0,1,1.3-1.3H36.54a1.3,1.3,0,0,1,1.3,1.3Z" transform="translate(0 -32)" fill="#585858"/>
</svg>
