<svg xmlns="http://www.w3.org/2000/svg" width="19.693" height="22.507" viewBox="0 0 19.693 22.507"><path d="M5.627,6.506V4.748a.529.529,0,0,1,.528-.528H7.913a.529.529,0,0,1,.528.528V6.506a.529.529,0,0,1-.528.528H6.154A.529.529,0,0,1,5.627,6.506Zm6.154.528h1.758a.529.529,0,0,0,.528-.528V4.748a.529.529,0,0,0-.528-.528H11.781a.529.529,0,0,0-.528.528V6.506A.529.529,0,0,0,11.781,7.033Zm-5.627,4.22H7.913a.529.529,0,0,0,.528-.528V8.968a.529.529,0,0,0-.528-.528H6.154a.529.529,0,0,0-.528.528v1.758A.529.529,0,0,0,6.154,11.253Zm5.627,0h1.758a.529.529,0,0,0,.528-.528V8.968a.529.529,0,0,0-.528-.528H11.781a.529.529,0,0,0-.528.528v1.758A.529.529,0,0,0,11.781,11.253ZM8.44,14.946V13.188a.529.529,0,0,0-.528-.528H6.154a.529.529,0,0,0-.528.528v1.758a.529.529,0,0,0,.528.528H7.913A.529.529,0,0,0,8.44,14.946Zm3.341.528h1.758a.529.529,0,0,0,.528-.528V13.188a.529.529,0,0,0-.528-.528H11.781a.529.529,0,0,0-.528.528v1.758A.529.529,0,0,0,11.781,15.473Zm7.913,5.451v1.583H0V20.924A.529.529,0,0,1,.528,20.4h.857V1.055A1.052,1.052,0,0,1,2.44,0H17.254a1.052,1.052,0,0,1,1.055,1.055V20.4h.857A.529.529,0,0,1,19.693,20.924Zm-16.2-.571H8.44V17.408a.529.529,0,0,1,.528-.528h1.758a.529.529,0,0,1,.528.528v2.945H16.2V2.154L3.517,2.11Z" fill="#099e42"/></svg>