<svg xmlns="http://www.w3.org/2000/svg" width="16.183" height="25.9" viewBox="0 0 16.183 25.9"><path d="M4.746,17.586a.018.018,0,0,1-.005-.01L3.709,20.155a1.963,1.963,0,0,1-.45.678L.306,23.791a1.211,1.211,0,0,0,.855,2.068,1.193,1.193,0,0,0,.855-.354l2.953-2.958a4.423,4.423,0,0,0,.981-1.492l.683-1.7L4.8,17.657l-.056-.071ZM10.46,4.854A2.427,2.427,0,1,0,8.038,2.427,2.423,2.423,0,0,0,10.46,4.854ZM15.754,13.7l-1.482-1.461a.417.417,0,0,1-.1-.162l-.652-1.962A5.311,5.311,0,0,0,8.473,6.472c-1.76,0-2.68.445-4.839,1.315A4.652,4.652,0,0,0,1.2,10.052L.468,11.625a1.213,1.213,0,0,0,2.2,1.021l.708-1.537a2.21,2.21,0,0,1,1.153-1.062c1.1-.44,1.674-.683,2.24-.865l-1,4a2.96,2.96,0,0,0,.753,2.761l3.995,3.691a2.016,2.016,0,0,1,.6,1.032l.986,4.288a1.209,1.209,0,1,0,2.356-.546l-.986-4.283a4.464,4.464,0,0,0-1.315-2.27l-2.72-2.508,1.325-5.3c.374.49.379.637,1.1,2.8a2.9,2.9,0,0,0,.7,1.123l1.482,1.466A1.223,1.223,0,0,0,15.754,13.7Z" transform="translate(0.05)" fill="#fff"/></svg>