<svg xmlns="http://www.w3.org/2000/svg" width="25.061" height="24.166" viewBox="0 0 25.061 24.166">
  <path id="Trazado_925" data-name="Trazado 925" d="M24.614,4.7a33.517,33.517,0,0,1,.448,4.923,27.93,27.93,0,0,1-.448,4.7,5.628,5.628,0,0,1-1.566,2.685,4.332,4.332,0,0,1-2.909,1.343A54.864,54.864,0,0,1,14.1,18.8l-5.37,5.147a.822.822,0,0,1-.671.224H7.608c-.448-.224-.448-.448-.448-.9V18.8l-2.238-.224a6.236,6.236,0,0,1-2.909-1.566,5.2,5.2,0,0,1-1.79-2.685A34.645,34.645,0,0,1,0,9.4,34.645,34.645,0,0,1,.224,4.475,4.139,4.139,0,0,1,2.014,1.79,4.332,4.332,0,0,1,4.923.448C7.608.224,10.069,0,12.531,0s4.923.224,7.608.448A5,5,0,0,1,23.047,1.79,4.227,4.227,0,0,1,24.614,4.7Z" fill="#f1f1f1"/>
</svg>
