<svg xmlns="http://www.w3.org/2000/svg" width="20.203" height="24.028" viewBox="0 0 20.203 24.028"><path d="M8,3H5.472a.4.4,0,0,0-.421.375V4.13a.4.4,0,0,0,.421.375H8a.4.4,0,0,0,.421-.375V3.379A.4.4,0,0,0,8,3Zm11.364-.751A.8.8,0,0,0,20.2,1.5V.751A.8.8,0,0,0,19.361,0H.842A.8.8,0,0,0,0,.751V1.5a.8.8,0,0,0,.842.751h.842V9.606C.621,10.08,0,10.648,0,11.263a8.675,8.675,0,0,0,3.877,7.086L2.6,22.09a1.54,1.54,0,0,0,1.61,1.938H15.994A1.54,1.54,0,0,0,17.6,22.09l-1.278-3.74A8.681,8.681,0,0,0,20.2,11.263c0-.615-.621-1.183-1.684-1.657V2.253Zm-15.152,0H15.994V8.827A28.661,28.661,0,0,0,10.1,8.26a28.661,28.661,0,0,0-5.893.568ZM5.345,21.775l.763-2.234a11.257,11.257,0,0,0,7.986,0l.763,2.234ZM10.1,18.021A7.536,7.536,0,0,1,2.93,13.38a26.093,26.093,0,0,0,7.171.887,26.093,26.093,0,0,0,7.171-.887A7.536,7.536,0,0,1,10.1,18.021Zm0-5.444c-4.056,0-7.345-.587-7.345-1.314S6.045,9.949,10.1,9.949s7.345.587,7.345,1.314S14.158,12.577,10.1,12.577Z" transform="translate(0)" fill="#585858"/></svg>