<svg xmlns="http://www.w3.org/2000/svg" width="21.491" height="24.027" viewBox="0 0 21.491 24.027"><path d="M4.32,5.832V23.081a1.718,1.718,0,0,0,1.521,1.667h18.3a1.857,1.857,0,0,0,1.665-1.667V5.832ZM15.043,19.521c-3.229,0-5.847-2.349-5.847-5.247s2.618-5.247,5.847-5.247,5.847,2.349,5.847,5.247S18.273,19.521,15.043,19.521Zm9.1-18.8H5.841A1.387,1.387,0,0,0,4.32,2V4.81H25.811V2C25.811,1.248,24.983.72,24.146.72ZM11.484,3.787H5.422V1.742h6.062Zm10.55-.143A1.186,1.186,0,0,1,20.79,2.526a1.252,1.252,0,0,1,2.49,0A1.188,1.188,0,0,1,22.034,3.644Z" transform="translate(-4.32 -0.72)" fill="#585858"/></svg>