<svg xmlns="http://www.w3.org/2000/svg" width="27.667" height="22.935" viewBox="0 0 27.667 22.935"><path d="M257.783,409.361a2.279,2.279,0,0,1-2.277-2.172c-.055-1.152,0-2.3,0-3.452v-5.215a10.225,10.225,0,0,1,.031-1.708,2.307,2.307,0,0,1,2.555-1.905h10.338a2.279,2.279,0,0,1,2.277,2.172c.054,1.152,0,2.3,0,3.451v5.215a10.215,10.215,0,0,1-.031,1.708,2.307,2.307,0,0,1-2.555,1.905H257.783Zm5.634-5.79a2.453,2.453,0,0,0,1.476-.278,2.267,2.267,0,0,0,.572-.52,1.788,1.788,0,0,0,.3-.584,3.686,3.686,0,0,0,.147-1.226v-.539a3.69,3.69,0,0,0-.147-1.226,1.794,1.794,0,0,0-.3-.584,2.269,2.269,0,0,0-.572-.52,2.458,2.458,0,0,0-1.476-.278h-3.232v8.615h1.892v-2.86Z" transform="translate(-255.481 -394.909)" fill="#585858"/><path d="M286.461,428.4v1.463c0,.562-.011,1.018-.7,1.112a6.845,6.845,0,0,1-1.448.005c-.691-.051-.749-.487-.749-1.064V429c0-.088-.078-.051-.132-.05l-.375.009-1.488.035c-.975.025-1.95.052-2.925.07-1.955.036-3.905.018-5.858-.08q-.735-.036-1.469-.084l-.183-.012c-.111-.007-.016.11-.016.166v1.1c0,.686-.389.823-.994.823a6.362,6.362,0,0,1-1.447-.08c-.615-.3-.457-.785-.457-1.293v-1.094c0-.155-.107-.18-.216-.23a2.729,2.729,0,0,1-1.517-2.356,9.527,9.527,0,0,1-.192-2.915,5.115,5.115,0,0,1,.36-1.414,5.215,5.215,0,0,1,.332-.656q.095-.158.2-.309c.09-.13.2-.079.321-.079h5.274a7.77,7.77,0,0,0,2.952-.214,3.089,3.089,0,0,0,1.494-1.155,3.214,3.214,0,0,0,.24-.392c.06-.115.075-.25.252-.253q.349-.007.7-.006a36.033,36.033,0,0,1,5.868.475l.181.03c.048.008.163.086.14,0q-.042-.168-.088-.334-.091-.334-.195-.664c-.138-.44-.294-.873-.47-1.3a13.559,13.559,0,0,0-.588-1.253,1.617,1.617,0,0,0-1.357-.836,20.67,20.67,0,0,0-2.919-.238c-.246-.007-.491-.011-.737-.012-.123,0-.247,0-.37,0-.141,0-.04-.26-.04-.331q0-.369-.005-.739c0-.123,0-.246,0-.369,0-.054-.067-.15.033-.151l.182,0c1.212-.007,4.563.05,5.727.851a6.1,6.1,0,0,1,1.542,2.466q.282.681.5,1.383.112.351.209.7c.033.118.064.236.094.354s.111.029.172,0a.615.615,0,0,0,.159-.121c.421-.453.085-.812.947-.841.245-.008.489,0,.733,0a2.471,2.471,0,0,1,.722.022c.565.164.408.91.408,1.289,0,.737-.576.614-1.095.614h-1.638c-.1,0,.079.069.12.1q.14.112.271.234a3.808,3.808,0,0,1,.474.532,4.92,4.92,0,0,1,.9,2.708,11.027,11.027,0,0,1-.223,2.838A2.745,2.745,0,0,1,286.461,428.4Zm-12.155-6.071a.3.3,0,0,0-.3.372,2.5,2.5,0,0,0,.142.526l.3,1.057c.081.284.136.953.6.954l.924,0,2.172,0,.982,0c.556,0,.685.092.881-.516l.334-1.036.167-.518a1.256,1.256,0,0,0,.141-.517c-.04-.462-.633-.322-.915-.323l-1.085,0Zm8.721.152c-.35.211-.5.874-.578,1.2-.171.724.3.565.827.577l2.716.056c.586.013.414-.758.422-1.1.015-.683.07-.815-.685-.815H284.37A5.02,5.02,0,0,0,283.027,422.478Zm-14.479,1.83,2.717-.057.678-.014c.331-.007.287-.254.23-.5-.1-.449-.106-.888-.539-1.223a3.518,3.518,0,0,0-1.331-.128h-1.359c-.722,0-.768.013-.752.749C268.2,423.443,268.007,424.286,268.547,424.308Z" transform="translate(-261.623 -408.079)" fill="#585858"/><path d="M272.715,407.459c0,.81-.981.565-1.47.565H270.8c-.072,0,0-.072,0-.108v-1.681c0-.221.2-.117.331-.117h.9C272.92,406.118,272.715,406.849,272.715,407.459Z" transform="translate(-264.196 -401.883)" fill="#585858"/></svg>