<svg xmlns="http://www.w3.org/2000/svg" width="28.015" height="22.935" viewBox="0 0 28.015 22.935"><path d="M22.062,15.769H5.971a.355.355,0,0,0-.35.358l0,2.15a.355.355,0,0,0,.35.358h16.1a.355.355,0,0,0,.35-.358v-2.15A.355.355,0,0,0,22.062,15.769Zm0,4.3H5.958a.355.355,0,0,0-.35.358l0,2.15a.355.355,0,0,0,.35.358H22.062a.355.355,0,0,0,.35-.358v-2.15A.355.355,0,0,0,22.062,20.07Zm0-8.6H5.979a.355.355,0,0,0-.35.358l0,2.15a.355.355,0,0,0,.35.358H22.062a.355.355,0,0,0,.35-.358v-2.15A.355.355,0,0,0,22.062,11.469Zm4.662-6.227L14.813.166a2.063,2.063,0,0,0-1.615,0L1.291,5.242A2.157,2.157,0,0,0,0,7.226V22.579a.355.355,0,0,0,.35.358h3.5a.355.355,0,0,0,.35-.358V11.469a1.433,1.433,0,0,1,1.427-1.434H22.386a1.433,1.433,0,0,1,1.427,1.434v11.11a.355.355,0,0,0,.35.358h3.5a.355.355,0,0,0,.35-.358V7.226A2.157,2.157,0,0,0,26.724,5.242Z" transform="translate(0 -0.002)" fill="#585858"/></svg>