<svg xmlns="http://www.w3.org/2000/svg" width="122.719" height="95.751" viewBox="0 0 122.719 95.751"><g transform="translate(-3789.02 -1268.194)"><g transform="translate(3794 1273.193)"><path d="M203.239,339.089c1.364,0,2.725-.085,4.093.039,1.193.109,2.039.326,2.523,1.587a6.213,6.213,0,0,0,1.355,2.413,5.531,5.531,0,0,0,.831.589c.619.416.6.1.749-.474.6-2.337,1.309-4.635,2.107-6.912a73.057,73.057,0,0,1,3.864-9.2,18.4,18.4,0,0,1,4.411-6.157,12.806,12.806,0,0,1,5.083-2.353,49.769,49.769,0,0,1,7.935-1.422,172.035,172.035,0,0,1,19.29-.7q1.991,0,3.982.022c4.052.041,8.085.194,12.12.615a46.627,46.627,0,0,1,9.451,1.759,11.12,11.12,0,0,1,5.021,2.884,27.082,27.082,0,0,1,4.9,8.173q1.128,2.558,2.1,5.177c.739,2.009,1.393,4.041,1.982,6.1.14.489.278.977.411,1.468a6.513,6.513,0,0,0,.289,1.076c.135.295.34.132.534,0s.377-.22.556-.348a3.453,3.453,0,0,0,.746-.749,6.815,6.815,0,0,0,.914-1.84,2.139,2.139,0,0,1,.924-1.275,4.81,4.81,0,0,1,2.457-.469c.378-.011.756-.013,1.133-.012a20.535,20.535,0,0,0,2.249.006,11.563,11.563,0,0,1,2.24-.023c1.308.113,2.236.345,2.764,1.73.585,1.536.219,2.99.216,4.493,0,1.916-.737,2.774-2.673,2.9-.563.036-5.909-.018-6.47-.018h-3.313c-.178,0-.778-.088-.5.108.312.221.663.376.961.623q.618.513,1.2,1.07a17.821,17.821,0,0,1,1.91,2.156,23.071,23.071,0,0,1,4.117,10.355,50.911,50.911,0,0,1-.12,11.543c-.358,2.894-1.322,8.894-3.043,11.53a10.456,10.456,0,0,1-2.475,2.61,17.636,17.636,0,0,1-1.811,1.206c-.173.1-.349.2-.524.3l-.274.15c-.078.042-.224-.009-.224.143v4.183c0,1.279.031,2.558-.014,3.838a4.291,4.291,0,0,1-1.091,3.213c-1,.885-2.6.928-3.754,1a32.141,32.141,0,0,1-3.686.014c-3.041-.162-4.858-.349-5.067-3.94-.1-1.727-.028-3.45-.028-5.175,0-.635-.056-.561-.638-.543-3.683.11-7.367.17-11.05.267-8.626.227-17.247.427-25.879.306q-9.641-.135-19.258-.757l-1.328-.085c-.091-.006-.523-.075-.61.035s.118.553.138.646a6.094,6.094,0,0,1,.01,1.371v1.76c0,1.4.345,3.926-1.061,5.128-1.273,1.088-4.467.96-5.824.939-.991-.015-1.975-.078-2.959-.191q-.736-.084-1.467-.2a2.58,2.58,0,0,1-1.468-.918c-1.395-1.427-.868-3.96-.868-5.49v-4.468c0-.611-.068-1.05-.7-1.336a10.729,10.729,0,0,1-6.285-6.6,52.631,52.631,0,0,1-2.179-11.822,33.466,33.466,0,0,1,.269-7.49,32.7,32.7,0,0,1,1.5-6.1,19.538,19.538,0,0,1,4.538-7.327,15.755,15.755,0,0,1,1.784-1.589c.2-.15.452-.207.651-.37.059-.048-.012-.087-.071-.089-.734-.033-1.467,0-2.2,0h-4.782a18.051,18.051,0,0,1-4.382-.181c-1.7-.575-1.5-2.242-1.577-3.55-.07-1.214-.236-3.1.571-4.264.708-1.023,1.6-1.054,2.671-1.125A11.524,11.524,0,0,1,203.239,339.089Z" transform="translate(-197.82 -316.492)" fill="#fff" stroke="#fff" stroke-width="10"/></g><g transform="translate(3794 1273.193)"><path d="M203.239,339.089c1.364,0,2.725-.085,4.093.039,1.193.109,2.039.326,2.523,1.587a6.213,6.213,0,0,0,1.355,2.413,5.531,5.531,0,0,0,.831.589c.619.416.6.1.749-.474.6-2.337,1.309-4.635,2.107-6.912a73.057,73.057,0,0,1,3.864-9.2,18.4,18.4,0,0,1,4.411-6.157,12.806,12.806,0,0,1,5.083-2.353,49.769,49.769,0,0,1,7.935-1.422,172.035,172.035,0,0,1,19.29-.7q1.991,0,3.982.022c4.052.041,8.085.194,12.12.615a46.627,46.627,0,0,1,9.451,1.759,11.12,11.12,0,0,1,5.021,2.884,27.082,27.082,0,0,1,4.9,8.173q1.128,2.558,2.1,5.177c.739,2.009,1.393,4.041,1.982,6.1.14.489.278.977.411,1.468a6.513,6.513,0,0,0,.289,1.076c.135.295.34.132.534,0s.377-.22.556-.348a3.453,3.453,0,0,0,.746-.749,6.815,6.815,0,0,0,.914-1.84,2.139,2.139,0,0,1,.924-1.275,4.81,4.81,0,0,1,2.457-.469c.378-.011.756-.013,1.133-.012a20.535,20.535,0,0,0,2.249.006,11.563,11.563,0,0,1,2.24-.023c1.308.113,2.236.345,2.764,1.73.585,1.536.219,2.99.216,4.493,0,1.916-.737,2.774-2.673,2.9-.563.036-5.909-.018-6.47-.018h-3.313c-.178,0-.778-.088-.5.108.312.221.663.376.961.623q.618.513,1.2,1.07a17.821,17.821,0,0,1,1.91,2.156,23.071,23.071,0,0,1,4.117,10.355,50.911,50.911,0,0,1-.12,11.543c-.358,2.894-1.322,8.894-3.043,11.53a10.456,10.456,0,0,1-2.475,2.61,17.636,17.636,0,0,1-1.811,1.206c-.173.1-.349.2-.524.3l-.274.15c-.078.042-.224-.009-.224.143v4.183c0,1.279.031,2.558-.014,3.838a4.291,4.291,0,0,1-1.091,3.213c-1,.885-2.6.928-3.754,1a32.141,32.141,0,0,1-3.686.014c-3.041-.162-4.858-.349-5.067-3.94-.1-1.727-.028-3.45-.028-5.175,0-.635-.056-.561-.638-.543-3.683.11-7.367.17-11.05.267-8.626.227-17.247.427-25.879.306q-9.641-.135-19.258-.757l-1.328-.085c-.091-.006-.523-.075-.61.035s.118.553.138.646a6.094,6.094,0,0,1,.01,1.371v1.76c0,1.4.345,3.926-1.061,5.128-1.273,1.088-4.467.96-5.824.939-.991-.015-1.975-.078-2.959-.191q-.736-.084-1.467-.2a2.58,2.58,0,0,1-1.468-.918c-1.395-1.427-.868-3.96-.868-5.49v-4.468c0-.611-.068-1.05-.7-1.336a10.729,10.729,0,0,1-6.285-6.6,52.631,52.631,0,0,1-2.179-11.822,33.466,33.466,0,0,1,.269-7.49,32.7,32.7,0,0,1,1.5-6.1,19.538,19.538,0,0,1,4.538-7.327,15.755,15.755,0,0,1,1.784-1.589c.2-.15.452-.207.651-.37.059-.048-.012-.087-.071-.089-.734-.033-1.467,0-2.2,0h-4.782a18.051,18.051,0,0,1-4.382-.181c-1.7-.575-1.5-2.242-1.577-3.55-.07-1.214-.236-3.1.571-4.264.708-1.023,1.6-1.054,2.671-1.125A11.524,11.524,0,0,1,203.239,339.089Zm36.754,22.249a1.415,1.415,0,0,0-1.465,1.336,5.461,5.461,0,0,0,.352,1.838c.23.805.509,1.595.739,2.4l1,3.5c.385,1.353.544,4.51,2.769,4.622,1.477.075,2.951,0,4.427,0,3.408,0,6.817.014,10.225.022,1.561,0,3.122,0,4.683,0,2.658,0,3.219.406,4.141-2.473q.972-3.038,1.946-6.076c.195-.607.424-1.2.654-1.795a3.9,3.9,0,0,0,.389-1.885c-.118-1.127-.725-1.422-1.748-1.54a22.105,22.105,0,0,0-2.568.062h-5.089Q250.218,361.355,239.993,361.339Zm41.065.715c-1.643.989-2.363,4.095-2.719,5.6-.807,3.416,1.581,2.687,4.015,2.738,4.244.088,8.485.248,12.731.264,1.3,0,1.817-.825,1.965-2a30.462,30.462,0,0,0-.032-3.225c.074-3.265.276-3.811-3.277-3.811h-3.183c-1.061,0-2.119.07-3.182,0a23.549,23.549,0,0,0-3.183,0q-.8.054-1.586.162-.395.054-.787.121c-.131.022-.261.046-.392.07l-.195.037c-.061.012-.308.037-.183.037Zm-68.182,8.616,12.8-.268c1.068-.023,2.136-.042,3.2-.066,1.569-.035,1.339-1.211,1.075-2.366-.479-2.094-.5-4.137-2.492-5.708a14.677,14.677,0,0,0-3.132-.632c-1.069-.1-2.128,0-3.192,0h-6.4c-3.544,0-3.511.1-3.529,3.593a32.583,32.583,0,0,0-.107,3.273c.1,1.038.5,2.175,1.771,2.175Zm74.115-24.96c.452.075.89.2,1.332.311.423.105.123-.415.062-.651q-.167-.643-.344-1.283c-.614-2.215-1.3-4.4-2.1-6.556-.759-2.051-2.91-7.317-4.213-9.15a7.317,7.317,0,0,0-2.783-2.389,11.89,11.89,0,0,0-3.8-.907,97.155,97.155,0,0,0-12.833-1.022c-6.841-.091-13.671-.241-20.515.152q-3.783.217-7.532.726a14.266,14.266,0,0,0-4.872,1.077c-2.721,1.4-3.575,3.7-4.718,6.15a76.388,76.388,0,0,0-4.522,12.627,9.913,9.913,0,0,0-.279,1.084c-.045.3.282.116.454.046a2.719,2.719,0,0,1,.6-.137q2.348-.389,4.706-.718a169.237,169.237,0,0,1,20.447-1.573C260.707,343.257,272.451,343.325,286.991,345.709Z" transform="translate(-197.82 -316.492)"/></g></g></svg>