<svg xmlns="http://www.w3.org/2000/svg" width="26.211" height="22.935" viewBox="0 0 26.211 22.935"><path d="M4.1,38.553a1.638,1.638,0,0,1,1.638-1.638h4.915a1.638,1.638,0,0,1,1.638,1.638v1.638h1.638V38.553a1.638,1.638,0,0,1,1.638-1.638h4.915a1.638,1.638,0,0,1,1.638,1.638v1.638h2.457V33.638A1.638,1.638,0,0,0,22.935,32H3.276a1.638,1.638,0,0,0-1.638,1.638v6.553H4.1Zm18.84,3.276H3.276A3.276,3.276,0,0,0,0,45.106v9.01a.819.819,0,0,0,.819.819h.819a.819.819,0,0,0,.819-.819V51.659h21.3v2.457a.819.819,0,0,0,.819.819h.819a.819.819,0,0,0,.819-.819v-9.01A3.276,3.276,0,0,0,22.935,41.829Zm.819,7.372H2.457v-4.1a.819.819,0,0,1,.819-.819H22.935a.819.819,0,0,1,.819.819Z" transform="translate(0 -32)" fill="#585858"/></svg>