<svg xmlns="http://www.w3.org/2000/svg" width="129.973" height="99.993" viewBox="0 0 129.973 99.993"><g transform="translate(-3932.192 -1274.281)"><path d="M119.06,44.349,104.146,18.962A6.03,6.03,0,0,0,96,16.807c-34.364,18.687-4.219,1.94-93.062,52.8A5.827,5.827,0,0,0,.741,77.625l14.914,25.406a6.03,6.03,0,0,0,8.15,2.155l93.081-52.817a5.817,5.817,0,0,0,2.173-8.019Z" transform="translate(3937.275 1263.281)" fill="#fff" stroke="#fff" stroke-width="10"/><path d="M119.06,44.349,104.146,18.962A6.03,6.03,0,0,0,96,16.807L83.067,24.133,94.253,43.188a1.454,1.454,0,0,1-.543,2l-2.586,1.461a1.5,1.5,0,0,1-2.042-.543L77.9,27.075,67.554,32.939l5.227,8.881a1.454,1.454,0,0,1-.543,2l-2.586,1.461a1.5,1.5,0,0,1-2.042-.543l-5.227-8.862L52.04,41.745,63.245,60.8a1.458,1.458,0,0,1-.543,2l-2.586,1.461a1.5,1.5,0,0,1-2.042-.543L46.888,44.668,36.546,50.532l5.227,8.881a1.454,1.454,0,0,1-.543,2l-2.586,1.461a1.5,1.5,0,0,1-2.042-.543l-5.227-8.9L21.032,59.3,32.218,78.356a1.458,1.458,0,0,1-.543,2l-2.586,1.461a1.5,1.5,0,0,1-2.042-.543l-11.185-19L2.933,69.606A5.827,5.827,0,0,0,.741,77.625l14.914,25.406a6.03,6.03,0,0,0,8.15,2.155l93.081-52.817a5.817,5.817,0,0,0,2.173-8.019Z" transform="translate(3937.275 1263.281)"/></g></svg>