<svg xmlns="http://www.w3.org/2000/svg" xmlns:xlink="http://www.w3.org/1999/xlink" width="480.393" height="237.355" viewBox="0 0 480.393 237.355">
  <defs>
    <filter id="Union_26" x="0" y="0" width="480.393" height="237.355" filterUnits="userSpaceOnUse">
      <feOffset input="SourceAlpha"/>
      <feGaussianBlur stdDeviation="5" result="blur"/>
      <feFlood flood-opacity="0.149"/>
      <feComposite operator="in" in2="blur"/>
      <feComposite in="SourceGraphic"/>
    </filter>
  </defs>
  <g transform="matrix(1, 0, 0, 1, 0, 0)" filter="url(#Union_26)">
    <path id="Union_26-2" data-name="Union 26" d="M341.983,206.22c-6.321-.863-10.353-8.68-7.133-14.277,3.083-6.395,12.472-7.071,17.464-2.588-.788,1-1.586,2-2.367,3.011-2.27-1.174-4.734-2.407-7.384-1.661a5.963,5.963,0,0,0-3.1,9.113c1.833,3.241,6.008,2.7,8.987,1.579-.025-1.733-.014-3.444-.022-5.163.9,0,2.678,0,3.574,0q-.011,3.958.014,7.932a17.1,17.1,0,0,1-8.073,2.2A13.759,13.759,0,0,1,341.983,206.22Zm-181.484,0c-2.449-6.463-4.315-13.13-6.589-19.654,1.658,0,3.334.011,5,.018,1.16,4.758,2.374,9.518,4,14.143,1.337-4.72,2.647-9.443,3.99-14.158q2.153-.016,4.322-.014c1.486,4.684,2.5,9.5,4.092,14.154,1.476-4.684,2.74-9.428,4.039-14.161q2.245.016,4.5.046c-1.908,6.654-4.221,13.185-6.5,19.72q-2.223-.032-4.432-.054c-1.418-4.437-2.5-8.977-3.992-13.388-1.3,4.5-2.543,9.031-4.064,13.468Q162.676,206.27,160.5,206.216Zm55.478.067c-1.328-.028-2.656-.055-3.976-.031q-.026-9.846,0-19.69,2.138-.005,4.29,0c-.025,5.209-.025,10.419.078,15.629,2.89.079,5.783.122,8.68.158-.064.888-.193,2.671-.257,3.563a35.077,35.077,0,0,1-5.883.412C217.932,206.324,216.954,206.3,215.977,206.284Zm92.107-12c-.118,3.954-.139,7.906-.219,11.864-.823,0-1.641,0-2.455,0q-.977,0-1.952,0c.211-6.478.337-12.963,0-19.433q2.041-.086,4.1-.147c3.141,3.946,6.016,8.092,9.192,12.01.144-3.957.165-7.917.251-11.874,1.39-.061,2.789-.119,4.2-.165q.027,9.855,0,19.719c-.992.007-2.975.029-3.971.04C314.106,202.345,311.2,198.231,308.083,194.281Zm-207.329,0c-.114,3.95-.132,7.9-.215,11.857-1.482,0-2.961.022-4.44.024q-.312-9.721.032-19.436,2.052-.108,4.114-.186c3.069,4,5.923,8.178,9.181,12.038.147-3.961.168-7.921.251-11.881,1.4-.061,2.793-.119,4.2-.165q.027,9.855,0,19.719c-.992.007-2.975.029-3.968.036C106.716,202.4,103.948,198.174,100.754,194.285Zm184.366-7.609c1.475-.018,2.965-.025,4.454-.025.19,6.484.186,12.977.04,19.465-1.533.054-3.047.111-4.562.165C285.042,199.746,284.962,193.211,285.12,186.676Zm-31.754-.068c1.576-.018,3.176-.025,4.766-.031,1.762,4.726,3.237,9.571,5.436,14.122,1.611-4.73,3.362-9.41,5.107-14.09,1.55-.022,3.122-.022,4.684-.025-2.553,6.553-5.168,13.081-7.742,19.623-1.551.014-3.076.047-4.613.072C258.39,199.75,255.762,193.218,253.366,186.608ZM127.85,206.252q-.027-9.846,0-19.694c4.973-.011,9.947-.029,14.925.1.014,1.225.046,2.474.042,3.71-3.526.111-7.046.129-10.57.236q.139,1.9.25,3.811,4.726.022,9.457.046c-.058.892-.175,2.679-.233,3.574a38.2,38.2,0,0,1-6.774.4c-.789,0-1.579,0-2.363.017-.1,1.274-.193,2.567-.329,3.842q5.311.032,10.627.036v3.924q-3.76.005-7.518.005T127.85,206.252Zm109.213,0q-.027-9.851,0-19.694,2.132-.005,4.286,0,.022,9.844,0,19.694Q239.2,206.25,237.063,206.256Zm47.455-51.366c-17.037-2.718-32.344-13.654-40.992-28.5a65.223,65.223,0,0,1-4.261-57.578c4.894-12.017,13.46-22.728,24.678-29.391a55.763,55.763,0,0,1,23.762-8.06c16.168-1.851,32.825,4.075,44.613,15.187,16.457,15.107,23.479,39.374,18.437,61.034-4.007,18.4-16.557,35.027-33.842,42.819a54.4,54.4,0,0,1-23.626,5.064A68.382,68.382,0,0,1,284.518,154.89Zm5.332-92.759c-10.521,1.164-19.684,8.862-23.712,18.494-4.483,10.728-2.85,23.884,4.533,32.944,6.964,9.166,19.8,13.506,30.841,9.958,12.973-3.595,21.663-16.865,21.749-30.047-.3-5.84-1.533-11.769-4.608-16.815A29.5,29.5,0,0,0,293.6,61.857,25.593,25.593,0,0,0,289.85,62.131Zm-122.6,93.283c-5.5.012-11,.023-16.491-.023a31.248,31.248,0,0,1-14.57-3.67,27.024,27.024,0,0,1-11.68-14.1c-2.635-6.882-2.1-14.38-2.36-21.6-.083-22.082.007-44.165-.04-66.248-.032-5.245-.047-10.495.273-15.73,10.14-.011,20.281-.118,30.418.05.29,27.551,0,55.1.136,82.652a7.671,7.671,0,0,0,6.309,7.945,115.019,115.019,0,0,0,11.937.319c2.029-.015,4.059-.032,6.086.007,3.2.061,7,.032,9.392-2.463,2.535-2.056,2.338-5.737,2.445-8.676.007-26.581-.132-53.164.061-79.744,10.076-.2,20.156-.168,30.236-.036.28,29.931.007,59.867.139,89.8a33.11,33.11,0,0,1-6.248,21.355c-3.5,4.705-8.913,7.638-14.488,9.157a58.205,58.205,0,0,1-13.264,1.01c-.85,0-1.7,0-2.548.007C177.741,155.392,172.493,155.4,167.246,155.414Zm-113.16,0q-27.034-.011-54.069-.011c.046-40.424-.108-80.847.075-121.27,11.267-.167,22.533-.142,33.8-.118q8.307.018,16.613.014c11.488-.035,23.25,2.553,32.939,8.927A45.283,45.283,0,0,1,98.112,58.027c5.232,8.5,7.641,18.423,8.522,28.288a82.241,82.241,0,0,1-3.728,35.554c-3.24,9.056-8.457,17.671-16.235,23.519-9.047,7.146-20.81,10.031-32.189,10.031Zm-23.919-95.5c-.176,23.253-.036,46.514-.065,69.767q12.354,0,24.707-.1c8.652-.193,15.981-6.8,18.986-14.61,3.416-8.752,3.713-18.358,2.894-27.607-.838-7.33-2.6-15.039-7.635-20.694-3.82-4.386-9.6-6.592-15.322-6.85q-4.479-.059-8.961-.059Q37.468,59.769,30.167,59.918Zm350.549,32.47q-5.945-.005-11.889,0,.005-6.623,0-13.245c4.446.02,8.892.008,13.338,0,7.427-.021,14.854-.04,22.28.09.149,4.378.218,8.758.053,13.137q-7.4.035-14.794.03Q385.21,92.392,380.716,92.388Zm50.42,0c-.053-12.217.1-24.435-.078-36.653-1.733,2.371-3.313,4.848-4.935,7.294-.824,1.3-1.848,2.639-1.683,4.3-.25,3.692-.136,7.39-.114,11.089q-8.439.016-16.862,0a71.822,71.822,0,0,1,.279-9.141c1.471-2.933,3.444-5.579,5.145-8.379q8.836-14.121,17.661-28.252c4.568-.079,9.145-.09,13.721.018.25,11.318.046,22.64.118,33.96,1.607-.061,3.259-.1,4.888-.179.111,3.982.122,7.967.132,11.956-1.694.007-3.344.025-5.017.04q-.011,6.971-.011,13.951Q437.754,92.386,431.136,92.388ZM369.475,73.37c6.474-6.667,13.153-13.13,19.68-19.744.884-1.256,2.452-2.409,1.894-4.2.333-3.312-4.2-5.632-6.828-3.6-2.646,1.475-1.958,4.991-2.245,7.53q-6.622,0-13.23,0a45.675,45.675,0,0,1,.655-8.368,19.016,19.016,0,0,1,9.589-11.551c6.868-3.044,15.677-1.708,20.726,4.072,5.908,6.148,6.385,16.7.869,23.264-3.681,4.533-8.325,8.164-12.145,12.586q-5.283.056-10.564.062Q373.675,73.422,369.475,73.37Zm-216.563-48.3q.022-12.52-.079-25.041Q165.246-.022,177.658,0q5.708,0,11.416,0,.016,12.531,0,25.058-9.04.005-18.081.005T152.912,25.066Z" transform="translate(15.48 15.5)" fill="#fff" stroke="rgba(0,0,0,0)" stroke-miterlimit="10" stroke-width="1"/>
  </g>
</svg>
