<svg xmlns="http://www.w3.org/2000/svg" width="563.568" height="259.324" viewBox="0 0 563.568 259.324"><path d="M428.108,258.154c-7.913-1.08-12.96-10.865-8.93-17.872,3.86-8,15.613-8.852,21.862-3.24-.986,1.255-1.985,2.506-2.963,3.77-2.841-1.47-5.926-3.013-9.243-2.08-4.684,1.16-6.908,7.594-3.881,11.407,2.3,4.057,7.522,3.384,11.251,1.977-.032-2.17-.018-4.312-.027-6.464,1.121,0,3.353,0,4.474,0q-.014,4.955.018,9.929a21.411,21.411,0,0,1-10.106,2.751A17.225,17.225,0,0,1,428.108,258.154Zm-227.189,0c-3.066-8.091-5.4-16.437-8.248-24.6,2.075,0,4.173.014,6.257.023,1.452,5.957,2.972,11.914,5.011,17.705,1.673-5.908,3.314-11.821,4.994-17.723q2.7-.02,5.41-.018c1.86,5.863,3.124,11.9,5.123,17.719,1.848-5.863,3.43-11.8,5.056-17.728q2.81.02,5.639.057c-2.389,8.329-5.284,16.506-8.14,24.686q-2.783-.041-5.549-.068c-1.776-5.554-3.133-11.237-5-16.76-1.628,5.639-3.183,11.3-5.088,16.859Q203.645,258.217,200.919,258.15Zm69.449.085c-1.663-.035-3.325-.069-4.978-.039q-.032-12.325,0-24.649,2.677-.007,5.371,0c-.032,6.521-.032,13.043.1,19.566,3.618.1,7.24.153,10.865.2-.08,1.112-.241,3.344-.322,4.46a43.911,43.911,0,0,1-7.364.516C272.816,258.285,271.592,258.26,270.368,258.234Zm115.3-15.025c-.148,4.949-.175,9.9-.274,14.852-1.031-.006-2.054,0-3.074,0q-1.224,0-2.444,0c.265-8.11.421-16.227,0-24.327q2.555-.108,5.136-.184c3.932,4.939,7.531,10.13,11.507,15.034.18-4.954.206-9.911.314-14.864,1.74-.077,3.492-.149,5.254-.206q.034,12.337,0,24.685c-1.242.009-3.725.036-4.971.05C393.211,253.3,389.572,248.154,385.671,243.209Zm-259.543,0c-.143,4.945-.166,9.893-.269,14.843-1.856,0-3.707.027-5.558.03q-.39-12.17.041-24.33,2.569-.135,5.15-.233c3.842,5.011,7.415,10.238,11.493,15.07.184-4.958.211-9.916.314-14.873,1.747-.077,3.5-.149,5.254-.206q.034,12.337,0,24.685c-1.242.009-3.725.036-4.967.045C133.591,253.367,130.127,248.082,126.128,243.214Zm230.8-9.525c1.847-.023,3.711-.032,5.576-.032.238,8.118.233,16.245.05,24.367-1.919.068-3.815.139-5.711.206C356.827,250.05,356.728,241.869,356.925,233.689Zm-39.751-.086c1.973-.023,3.976-.032,5.966-.039,2.206,5.916,4.053,11.981,6.8,17.678,2.017-5.922,4.209-11.78,6.393-17.639,1.94-.027,3.908-.027,5.863-.032-3.2,8.2-6.469,16.375-9.691,24.564-1.941.018-3.851.059-5.774.09C323.463,250.055,320.173,241.878,317.174,233.6ZM160.047,258.195q-.034-12.325,0-24.654c6.226-.014,12.452-.036,18.683.125.018,1.533.057,3.1.053,4.644-4.414.139-8.821.161-13.231.3q.174,2.381.313,4.77,5.917.027,11.839.057c-.072,1.117-.22,3.354-.292,4.474a47.823,47.823,0,0,1-8.48.5c-.988,0-1.976,0-2.959.021-.126,1.6-.242,3.213-.412,4.81q6.648.041,13.3.045v4.912q-4.707.007-9.411.007T160.047,258.195Zm136.718,0q-.034-12.332,0-24.654,2.668-.007,5.365,0,.027,12.323,0,24.654Q299.441,258.192,296.765,258.2Zm59.406-64.3c-21.328-3.4-40.49-17.092-51.316-35.677-12.816-21.436-14.945-48.994-5.334-72.079,6.127-15.043,16.849-28.451,30.893-36.793a69.807,69.807,0,0,1,29.746-10.09c20.239-2.318,41.091,5.1,55.848,19.011,20.6,18.912,29.392,49.29,23.081,76.4-5.016,23.031-20.727,43.848-42.365,53.6a68.106,68.106,0,0,1-29.576,6.34A85.6,85.6,0,0,1,356.171,193.9Zm6.675-116.12c-13.171,1.457-24.641,11.094-29.684,23.152-5.612,13.43-3.568,29.9,5.675,41.24,8.718,11.475,24.784,16.908,38.608,12.465,16.24-4.5,27.119-21.112,27.227-37.613-.372-7.311-1.919-14.733-5.768-21.049-6.286-11.074-18.625-18.536-31.369-18.537A32.038,32.038,0,0,0,362.847,77.778ZM209.366,194.553c-6.883.015-13.764.028-20.644-.028a39.117,39.117,0,0,1-18.239-4.594,33.829,33.829,0,0,1-14.622-17.648c-3.3-8.616-2.627-18-2.954-27.039-.1-27.644.009-55.287-.05-82.932-.041-6.566-.059-13.138.341-19.692,12.694-.014,25.388-.148,38.079.063.363,34.489,0,68.982.17,103.467a9.6,9.6,0,0,0,7.9,9.946,143.985,143.985,0,0,0,14.943.4c2.541-.019,5.081-.039,7.618.009,4.008.077,8.768.041,11.758-3.084,3.174-2.573,2.927-7.181,3.061-10.861.009-33.275-.166-66.553.077-99.826,12.614-.247,25.231-.211,37.85-.045.35,37.469.009,74.944.175,112.418.4,9.44-2.066,19.141-7.821,26.733-4.384,5.89-11.157,9.562-18.137,11.463-5.444,1.266-11.042,1.265-16.6,1.264-1.065,0-2.129,0-3.19.009C222.5,194.526,215.934,194.54,209.366,194.553Zm-141.658,0q-33.842-.014-67.686-.014c.057-50.6-.135-101.208.094-151.81,14.1-.208,28.208-.178,42.313-.148q10.4.022,20.8.017c14.381-.044,29.1,3.2,41.235,11.175A56.687,56.687,0,0,1,122.82,72.64c6.549,10.641,9.565,23.063,10.668,35.412,1.542,14.941.314,30.285-4.667,44.507C124.766,163.9,118.235,174.68,108.5,182c-11.326,8.945-26.051,12.557-40.3,12.557ZM37.764,75.007c-.22,29.109-.045,58.228-.081,87.337q15.465,0,30.929-.121c10.831-.242,20.006-8.513,23.767-18.289,4.277-10.956,4.649-22.982,3.622-34.56-1.049-9.175-3.25-18.826-9.557-25.905-4.783-5.49-12.017-8.252-19.18-8.575q-5.607-.074-11.218-.073Q46.9,74.821,37.764,75.007ZM476.6,115.655q-7.443-.007-14.883,0,.007-8.291,0-16.581c5.566.025,11.131.01,16.7,0,9.3-.026,18.6-.051,27.892.113.187,5.481.273,10.963.066,16.446q-9.26.044-18.52.038Q482.221,115.661,476.6,115.655Zm63.118,0c-.066-15.294.126-30.589-.1-45.883-2.17,2.968-4.147,6.069-6.177,9.13-1.031,1.631-2.313,3.3-2.107,5.384-.313,4.622-.17,9.251-.143,13.882q-10.564.02-21.108,0c.057-3.809-.194-7.669.349-11.443,1.842-3.672,4.312-6.984,6.441-10.489q11.061-17.677,22.108-35.367c5.719-.1,11.448-.113,17.177.023.313,14.169.057,28.342.148,42.512,2.012-.077,4.08-.122,6.119-.224.139,4.984.152,9.973.166,14.967-2.12.009-4.187.032-6.28.05q-.014,8.727-.014,17.464Q548,115.652,539.714,115.655ZM462.524,91.847c8.1-8.346,16.465-16.437,24.637-24.717,1.106-1.573,3.07-3.016,2.37-5.254.417-4.146-5.254-7.051-8.548-4.509-3.312,1.847-2.452,6.248-2.811,9.427q-8.289,0-16.562,0c.148-3.5.03-7.042.82-10.476a23.806,23.806,0,0,1,12-14.461c8.6-3.81,19.625-2.138,25.946,5.1,7.4,7.7,7.993,20.911,1.088,29.123-4.608,5.675-10.422,10.22-15.2,15.756q-6.613.071-13.224.078Q467.781,91.913,462.524,91.847Zm-271.1-60.469q.027-15.673-.1-31.347Q206.862-.028,222.4,0,229.545.01,236.69.01q.02,15.686,0,31.368-11.316.007-22.635.007T191.421,31.378Z" transform="translate(0.479 0.496)" fill="#6e6d71" stroke="rgba(0,0,0,0)" stroke-miterlimit="10" stroke-width="1"/></svg>