<svg xmlns="http://www.w3.org/2000/svg" width="37.172" height="37.171" viewBox="0 0 37.172 37.171">
  <path id="Lupa" d="M-2983.463-2496.9l-.306-.307-.347.261a15.539,15.539,0,0,1-9.519,3.172,15.781,15.781,0,0,1-11.248-4.617,15.782,15.782,0,0,1-4.617-11.248,15.782,15.782,0,0,1,4.617-11.247,15.782,15.782,0,0,1,11.248-4.617,15.787,15.787,0,0,1,11.248,4.617,15.782,15.782,0,0,1,4.616,11.247,15.54,15.54,0,0,1-3.172,9.519l-.26.347.306.306,7.362,7.361-2.566,2.566Zm-22.361-12.739a12.06,12.06,0,0,0,12.189,12.19,12.059,12.059,0,0,0,12.189-12.19,12.059,12.059,0,0,0-12.189-12.189A12.059,12.059,0,0,0-3005.824-2509.636Zm13.411,7.721h-2.5v-6h-6v-3h6v-6h3v6h6v3h-6v6Z" transform="translate(3010 2526)" fill="#fff" stroke="#758393" stroke-miterlimit="10" stroke-width="1"/>
</svg>
