<svg id="Mail" xmlns="http://www.w3.org/2000/svg" width="48" height="36" viewBox="0 0 48 36">
  <path id="Trazado_920" data-name="Trazado 920" d="M43.5,64H4.5A4.5,4.5,0,0,0,0,68.5v27A4.5,4.5,0,0,0,4.5,100h39A4.5,4.5,0,0,0,48,95.5v-27A4.5,4.5,0,0,0,43.5,64Zm0,4.5v3.825c-2.1,1.712-5.453,4.374-12.618,9.983C29.3,83.551,26.176,86.534,24,86.5c-2.176.035-5.3-2.949-6.882-4.191C9.954,76.7,6.6,74.038,4.5,72.325V68.5Zm-39,27V78.1c2.148,1.711,5.195,4.112,9.838,7.748C16.387,87.461,19.975,91.022,24,91c4,.022,7.548-3.487,9.661-5.151,4.643-3.636,7.69-6.038,9.839-7.749V95.5Z" transform="translate(0 -64)"/>
</svg>
