<svg id="Phone" xmlns="http://www.w3.org/2000/svg" width="48" height="48" viewBox="0 0 48 48">
  <path id="Trazado_921" data-name="Trazado 921" d="M45.4,30.932l-9.524-4.083a4.3,4.3,0,0,0-5.005,1.228L27.8,31.827A29.163,29.163,0,0,1,16.16,20.191l3.75-3.066a4.3,4.3,0,0,0,1.228-5.008L17.062,2.6a4.278,4.278,0,0,0-4.9-2.495L3.328,2.14A4.274,4.274,0,0,0,0,6.323,41.66,41.66,0,0,0,41.677,47.994a4.273,4.273,0,0,0,4.18-3.329l2.034-8.833A4.289,4.289,0,0,0,45.4,30.932ZM41.5,43.5A37.169,37.169,0,0,1,4.5,6.491L13,4.532l3.946,9.208-6.383,5.223c4.349,9.281,9.205,14.121,18.468,18.468l5.221-6.385,9.205,3.948Z" transform="translate(0 0.006)"/>
</svg>
