<svg xmlns="http://www.w3.org/2000/svg" width="19.111" height="20.5" viewBox="0 0 19.111 20.5">
  <g id="Grupo_902" data-name="Grupo 902" transform="translate(0.812 0.75)">
    <g id="Grupo_3" data-name="Grupo 3">
      <path id="Trazado_5" data-name="Trazado 5" d="M17.4,11.848a6.855,6.855,0,0,0,0-2.7l1.56-1.286A1.154,1.154,0,0,0,19.221,6.4l-.75-1.3a1.149,1.149,0,0,0-1.4-.5l-1.9.712a6.881,6.881,0,0,0-2.324-1.346l-.332-2A1.151,1.151,0,0,0,11.382,1h-1.5a1.15,1.15,0,0,0-1.134.962l-.333,2A6.881,6.881,0,0,0,6.089,5.309L4.191,4.6a1.15,1.15,0,0,0-1.4.5L2.041,6.4a1.154,1.154,0,0,0,.265,1.465l1.56,1.286a6.855,6.855,0,0,0,0,2.7l-1.56,1.286A1.154,1.154,0,0,0,2.041,14.6l.75,1.3a1.149,1.149,0,0,0,1.4.5l1.9-.712a6.881,6.881,0,0,0,2.324,1.346l.332,2A1.153,1.153,0,0,0,9.881,20h1.5a1.15,1.15,0,0,0,1.134-.962l.332-2a6.872,6.872,0,0,0,2.324-1.346l1.9.712a1.148,1.148,0,0,0,1.4-.5l.75-1.3a1.153,1.153,0,0,0-.265-1.465Z" transform="translate(-1.887 -1)" fill="none" stroke="#9ca1a8" stroke-linecap="round" stroke-linejoin="round" stroke-miterlimit="10" stroke-width="1.5"/>
      <circle id="Elipse_2" data-name="Elipse 2" cx="2.591" cy="2.591" r="2.591" transform="translate(6.153 6.909)" fill="none" stroke="#9ca1a8" stroke-linecap="round" stroke-linejoin="round" stroke-miterlimit="10" stroke-width="1.5"/>
    </g>
  </g>
</svg>
