<svg xmlns="http://www.w3.org/2000/svg" width="48.791" height="48.789" viewBox="0 0 48.791 48.789"><g transform="translate(8476.414 5401.414)" fill="#fff" stroke-linejoin="round"><path d="M -8432.572265625 -5353.33154296875 L -8432.92578125 -5353.68505859375 L -8452.0185546875 -5372.77734375 L -8471.109375 -5353.68505859375 L -8471.462890625 -5353.33154296875 L -8471.81640625 -5353.68505859375 L -8475.353515625 -5357.22021484375 L -8475.70703125 -5357.57373046875 L -8475.353515625 -5357.92724609375 L -8456.2607421875 -5377.01953125 L -8475.353515625 -5396.111328125 L -8475.70703125 -5396.46484375 L -8475.353515625 -5396.818359375 L -8471.81640625 -5400.35302734375 L -8471.462890625 -5400.70654296875 L -8471.109375 -5400.35302734375 L -8452.0185546875 -5381.26220703125 L -8432.927734375 -5400.35302734375 L -8432.57421875 -5400.70654296875 L -8432.220703125 -5400.35302734375 L -8428.685546875 -5396.818359375 L -8428.33203125 -5396.46484375 L -8428.685546875 -5396.111328125 L -8447.7763671875 -5377.01953125 L -8428.68359375 -5357.92724609375 L -8428.330078125 -5357.57373046875 L -8428.68359375 -5357.22021484375 L -8432.21875 -5353.68505859375 L -8432.572265625 -5353.33154296875 Z" stroke="none"/><path d="M -8432.572265625 -5354.03857421875 L -8429.037109375 -5357.57373046875 L -8448.4833984375 -5377.01953125 L -8429.0390625 -5396.46484375 L -8432.57421875 -5399.99951171875 L -8452.0185546875 -5380.55517578125 L -8471.462890625 -5399.99951171875 L -8475 -5396.46484375 L -8455.5537109375 -5377.01953125 L -8475 -5357.57373046875 L -8471.462890625 -5354.03857421875 L -8452.0185546875 -5373.484375 L -8432.572265625 -5354.03857421875 M -8432.572265625 -5353.03857421875 C -8432.828125 -5353.03857421875 -8433.083984375 -5353.13623046875 -8433.279296875 -5353.33154296875 L -8452.0185546875 -5372.0703125 L -8470.755859375 -5353.33154296875 C -8471.146484375 -5352.94091796875 -8471.779296875 -5352.94140625 -8472.169921875 -5353.3310546875 L -8475.70703125 -5356.8662109375 C -8475.89453125 -5357.0537109375 -8476 -5357.30810546875 -8476 -5357.57373046875 C -8476 -5357.8388671875 -8475.89453125 -5358.09326171875 -8475.70703125 -5358.28076171875 L -8456.9677734375 -5377.01953125 L -8475.70703125 -5395.7578125 C -8475.89453125 -5395.9453125 -8476 -5396.19970703125 -8476 -5396.46484375 C -8476 -5396.73046875 -8475.89453125 -5396.98486328125 -8475.70703125 -5397.17236328125 L -8472.169921875 -5400.70703125 C -8471.779296875 -5401.0966796875 -8471.146484375 -5401.09716796875 -8470.755859375 -5400.70654296875 L -8452.0185546875 -5381.96923828125 L -8433.28125 -5400.70654296875 C -8432.890625 -5401.09716796875 -8432.2578125 -5401.09716796875 -8431.8671875 -5400.70654296875 L -8428.33203125 -5397.171875 C -8428.14453125 -5396.984375 -8428.0390625 -5396.72998046875 -8428.0390625 -5396.46484375 C -8428.0390625 -5396.19970703125 -8428.14453125 -5395.9453125 -8428.33203125 -5395.7578125 L -8447.0693359375 -5377.01953125 L -8428.330078125 -5358.28076171875 C -8428.142578125 -5358.09326171875 -8428.037109375 -5357.8388671875 -8428.037109375 -5357.57373046875 C -8428.037109375 -5357.30859375 -8428.142578125 -5357.05419921875 -8428.330078125 -5356.86669921875 L -8431.865234375 -5353.33154296875 C -8432.060546875 -5353.13623046875 -8432.31640625 -5353.03857421875 -8432.572265625 -5353.03857421875 Z" stroke="none" fill="#707070"/></g></svg>