<svg id="Whatsapp" xmlns="http://www.w3.org/2000/svg" width="48" height="48" viewBox="0 0 48 48">
  <path id="Trazado_922" data-name="Trazado 922" d="M40.811,38.975a23.793,23.793,0,0,0-37.436,28.7L0,80l12.611-3.311a23.713,23.713,0,0,0,11.368,2.893h.011A23.635,23.635,0,0,0,40.811,38.975Zm-16.821,36.6a19.735,19.735,0,0,1-10.071-2.754l-.718-.429L5.721,74.354l1.993-7.3-.471-.75A19.808,19.808,0,1,1,43.982,55.8,19.991,19.991,0,0,1,23.989,75.575ZM34.832,60.768c-.589-.3-3.514-1.736-4.061-1.929s-.943-.3-1.339.3-1.532,1.929-1.886,2.336-.7.45-1.286.15c-3.493-1.746-5.786-3.118-8.089-7.071-.611-1.05.611-.975,1.746-3.246a1.1,1.1,0,0,0-.054-1.039c-.15-.3-1.339-3.225-1.832-4.414-.482-1.157-.975-1-1.339-1.018-.343-.021-.739-.021-1.136-.021a2.2,2.2,0,0,0-1.586.739,6.679,6.679,0,0,0-2.079,4.961c0,2.925,2.132,5.754,2.421,6.15s4.189,6.4,10.157,8.979c3.771,1.629,5.25,1.768,7.136,1.489,1.146-.171,3.514-1.436,4.007-2.829a4.971,4.971,0,0,0,.343-2.829C35.818,61.207,35.421,61.057,34.832,60.768Z" transform="translate(0 -32)"/>
</svg>
